<svg xmlns="http://www.w3.org/2000/svg" width="600" height="600" viewBox="0 0 600 600">
<defs>
  <pattern id="g" width="30" height="30" patternUnits="userSpaceOnUse"><path d="M30 0H0V30" fill="none" stroke="#4da2ff" stroke-opacity="0.16"/></pattern>
  <pattern id="h" width="28" height="28" patternUnits="userSpaceOnUse" patternTransform="rotate(45)"><rect width="14" height="28" fill="#ffc83d"/><rect x="14" width="14" height="28" fill="#06122b"/></pattern>
</defs>
<rect width="600" height="600" fill="#132f6b"/><rect width="600" height="600" fill="url(#g)"/>

<g transform="translate(60 150) scale(1)">
  <ellipse cx="100" cy="218" rx="58" ry="8" fill="#000" opacity="0.3"/>
  <path d="M100 40 C100 40 34 98 34 142 A66 66 0 0 0 166 142 C166 98 100 40 100 40 Z" fill="#4da2ff" stroke="#06122b" stroke-width="6" stroke-linejoin="round"/>
  <path d="M62 128 C62 104 78 84 92 70" stroke="#fff" stroke-opacity="0.55" stroke-width="9" stroke-linecap="round" fill="none"/>
  <path d="M52 78 C52 44 148 44 148 78 Z" fill="#ffc83d" stroke="#06122b" stroke-width="6" stroke-linejoin="round"/>
  <rect x="92" y="40" width="16" height="36" rx="6" fill="#ffd24d" stroke="#06122b" stroke-width="5"/>
  <rect x="36" y="74" width="128" height="16" rx="8" fill="#ffc83d" stroke="#06122b" stroke-width="6"/>
  <ellipse cx="78" cy="126" rx="9" ry="12" fill="#06122b"/><circle cx="81" cy="121" r="3.5" fill="#fff"/>
  <ellipse cx="122" cy="126" rx="9" ry="12" fill="#06122b"/><circle cx="125" cy="121" r="3.5" fill="#fff"/>
  <ellipse cx="100" cy="162" rx="11" ry="13" fill="#06122b"/>
</g>
<g transform="translate(340 150) scale(1)">
  <ellipse cx="100" cy="218" rx="58" ry="8" fill="#000" opacity="0.3"/>
  <path d="M100 40 C100 40 34 98 34 142 A66 66 0 0 0 166 142 C166 98 100 40 100 40 Z" fill="#4da2ff" stroke="#06122b" stroke-width="6" stroke-linejoin="round"/>
  <path d="M62 128 C62 104 78 84 92 70" stroke="#fff" stroke-opacity="0.55" stroke-width="9" stroke-linecap="round" fill="none"/>
  <path d="M52 78 C52 44 148 44 148 78 Z" fill="#ffc83d" stroke="#06122b" stroke-width="6" stroke-linejoin="round"/>
  <rect x="92" y="40" width="16" height="36" rx="6" fill="#ffd24d" stroke="#06122b" stroke-width="5"/>
  <rect x="36" y="74" width="128" height="16" rx="8" fill="#ffc83d" stroke="#06122b" stroke-width="6"/>
  <ellipse cx="78" cy="126" rx="9" ry="12" fill="#06122b"/><circle cx="81" cy="121" r="3.5" fill="#fff"/>
  <ellipse cx="122" cy="126" rx="9" ry="12" fill="#06122b"/><circle cx="125" cy="121" r="3.5" fill="#fff"/>
  <path d="M74 152 Q100 180 126 152" stroke="#06122b" stroke-width="6" stroke-linecap="round" fill="#0a1b3d"/>
</g>
<rect y="584" width="600" height="16" fill="url(#h)"/>
<text x="300" y="70" text-anchor="middle" font-family="Bowlby One, Impact, sans-serif" font-size="40" fill="#fff" stroke="#06122b" stroke-width="8" paint-order="stroke" letter-spacing="1">THEY SAID WEN LAUNCH</text><text x="300" y="555" text-anchor="middle" font-family="Bowlby One, Impact, sans-serif" font-size="40" fill="#fff" stroke="#06122b" stroke-width="8" paint-order="stroke" letter-spacing="1">WE SAID WEN BUILD</text>
</svg>